<svg width="24" height="24" viewBox="0 0 24 24" fill="none" xmlns="http://www.w3.org/2000/svg">
<rect width="24" height="24" fill="white"/>
<path d="M12.8451 16.9432L8.26479 12.3629L18.2764 12.3689C18.5037 12.3689 18.7216 12.2786 18.8823 12.1179C19.043 11.9572 19.1333 11.7392 19.1333 11.512C19.1333 11.2847 19.043 11.0667 18.8823 10.906C18.7216 10.7453 18.5037 10.655 18.2764 10.655L8.26479 10.6611L12.8451 6.08071C13.0052 5.92066 13.0951 5.70358 13.0951 5.47724C13.0951 5.25089 13.0052 5.03382 12.8451 4.87376C12.6851 4.71371 12.468 4.6238 12.2417 4.6238C12.0153 4.6238 11.7982 4.71371 11.6382 4.87376L5.60347 10.9085C5.52557 10.9883 5.46406 11.0826 5.42243 11.1861C5.33621 11.3948 5.33621 11.6291 5.42243 11.8378C5.46406 11.9413 5.52557 12.0356 5.60347 12.1154L11.6382 18.1502C11.7982 18.3102 12.0153 18.4001 12.2417 18.4001C12.468 18.4001 12.6851 18.3102 12.8451 18.1502C13.0052 17.9901 13.0951 17.773 13.0951 17.5467C13.0951 17.3203 13.0052 17.1033 12.8451 16.9432Z" fill="#3068F9"/>
</svg>
